<svg id="Logo_1" data-name="Logo 1" xmlns="http://www.w3.org/2000/svg" width="184.4" height="23.608" viewBox="0 0 184.4 23.608">
  <path id="Path_467" data-name="Path 467" d="M184.93,273.226v-22.07h5.827l4.586,8.086a64.293,64.293,0,0,1,3.6,7.566h.1a82.256,82.256,0,0,1-.426-9.2v-6.45H203.2v22.07h-5.241l-4.715-8.513a82.645,82.645,0,0,1-3.831-7.795l-.1.032c.133,2.916.2,6.026.2,9.626v6.649Z" transform="translate(-184.93 -249.979)"/>
  <path id="Path_468" data-name="Path 468" d="M242.392,275.127c.165,2.063,2.2,3.045,4.52,3.045a14.1,14.1,0,0,0,4.42-.655l.656,3.373a15.8,15.8,0,0,1-5.8.983c-5.436,0-8.547-3.141-8.547-8.154,0-4.062,2.522-8.547,8.088-8.547,5.175,0,7.138,4.028,7.138,7.991a11.838,11.838,0,0,1-.163,1.964Zm5.863-3.405c0-1.212-.525-3.241-2.818-3.241-2.095,0-2.945,1.9-3.078,3.241Z" transform="translate(-216.22 -258.298)"/>
  <path id="Path_469" data-name="Path 469" d="M285.922,254.784v4.584h3.568v3.666h-3.568v5.8c0,1.929.457,2.813,1.962,2.813a8.342,8.342,0,0,0,1.476-.128l.034,3.763a9.8,9.8,0,0,1-3.242.426,5.178,5.178,0,0,1-3.733-1.374c-.919-.951-1.375-2.49-1.375-4.748v-6.55h-2.131v-3.666h2.131V255.9Z" transform="translate(-240.716 -252.132)"/>
  <path id="Path_470" data-name="Path 470" d="M312.445,251.156h5.012v17.879h8.774v4.191H312.445Z" transform="translate(-260.619 -249.979)"/>
  <path id="Path_471" data-name="Path 471" d="M358.178,251.42a2.5,2.5,0,0,1-2.685,2.49,2.507,2.507,0,1,1,.031-5.01A2.5,2.5,0,0,1,358.178,251.42Z" transform="translate(-284.636 -248.64)" fill="#3c83bb"/>
  <rect id="Rectangle_2037" data-name="Rectangle 2037" width="4.976" height="16.012" transform="translate(68.4 7.236)"/>
  <path id="Path_472" data-name="Path 472" d="M375.127,270.642c0-2-.065-3.7-.132-5.108h4.322l.23,2.192h.1a5.869,5.869,0,0,1,4.945-2.554c3.273,0,5.729,2.162,5.729,6.878v9.5h-4.978v-8.873c0-2.064-.721-3.472-2.521-3.472a2.655,2.655,0,0,0-2.52,1.868,3.4,3.4,0,0,0-.2,1.242v9.235h-4.975Z" transform="translate(-297.747 -258.298)"/>
  <path id="Path_473" data-name="Path 473" d="M427.523,262.239h.067c.359-.655.756-1.31,1.145-1.931l3.242-4.813h5.994l-5.733,6.482,6.551,9.529h-6.126l-3.862-6.582-1.279,1.572v5.01h-4.975V248.259h4.975Z" transform="translate(-325.974 -248.259)"/>
  <path id="Path_474" data-name="Path 474" d="M466.2,255.349h-5.928v-4.193h16.962v4.193h-6.024v17.877H466.2Z" transform="translate(-348.366 -249.979)" fill="#3c83bb"/>
  <path id="Path_475" data-name="Path 475" d="M503.606,270.806c0-2.359-.065-3.9-.13-5.272h4.29l.164,2.947h.13a4.707,4.707,0,0,1,4.322-3.309,5.066,5.066,0,0,1,1.047.066v4.682a7.2,7.2,0,0,0-1.342-.13,3.2,3.2,0,0,0-3.4,2.52,5.725,5.725,0,0,0-.1,1.112v8.124h-4.978Z" transform="translate(-374.011 -258.298)" fill="#3c83bb"/>
  <path id="Path_476" data-name="Path 476" d="M549.19,276.932c0,2.1.063,3.8.131,5.143H545l-.23-2.259h-.1a5.72,5.72,0,0,1-5.011,2.619c-3.241,0-5.631-2.031-5.631-6.976v-9.4h5.008v8.612c0,2.323.756,3.73,2.488,3.73a2.682,2.682,0,0,0,2.49-1.733,2.8,2.8,0,0,0,.166-1.082v-9.527h5.007Z" transform="translate(-392.148 -258.827)" fill="#3c83bb"/>
  <path id="Path_477" data-name="Path 477" d="M579.812,277.19A9.711,9.711,0,0,0,584.1,278.4c1.507,0,2.128-.525,2.128-1.341s-.489-1.213-2.359-1.835c-3.305-1.111-4.581-2.914-4.549-4.814,0-2.977,2.556-5.239,6.516-5.239a10.791,10.791,0,0,1,4.52.916l-.887,3.441a7.816,7.816,0,0,0-3.469-.92c-1.212,0-1.9.495-1.9,1.312,0,.753.623,1.148,2.591,1.833,3.044,1.048,4.319,2.588,4.353,4.947,0,2.979-2.358,5.173-6.943,5.173a11.3,11.3,0,0,1-5.171-1.116Z" transform="translate(-418.798 -258.298)" fill="#3c83bb"/>
  <path id="Path_478" data-name="Path 478" d="M619.627,254.784v4.584h3.568v3.666h-3.568v5.8c0,1.929.454,2.813,1.961,2.813a8.356,8.356,0,0,0,1.475-.128l.034,3.763a9.8,9.8,0,0,1-3.242.426,5.19,5.19,0,0,1-3.736-1.374c-.914-.951-1.374-2.49-1.374-4.748v-6.55h-2.128v-3.666h2.128V255.9Z" transform="translate(-438.794 -252.132)" fill="#3c83bb"/>
</svg>
