<svg id="partnership" xmlns="http://www.w3.org/2000/svg" xmlns:xlink="http://www.w3.org/1999/xlink" width="216.766" height="193.525" viewBox="0 0 216.766 193.525">
  <defs>
    <linearGradient id="linear-gradient" x1="0.5" x2="0.5" y2="1" gradientUnits="objectBoundingBox">
      <stop offset="0" stop-color="#fba766"/>
      <stop offset="1"/>
    </linearGradient>
  </defs>
  <path id="Path_1177" data-name="Path 1177" d="M24.312,137.466,1.86,115.014a6.35,6.35,0,0,1,0-8.981L48.333,61.128a6.35,6.35,0,0,1,8.981,0L79.766,83.58Z" transform="translate(0 -45.796)" fill="#378497"/>
  <path id="Path_1227" data-name="Path 1227" d="M31.207,57.454,0,26.02C24.933,1.087,26.063-.056,27.473,0S54.082,26.02,54.082,26.02a6.35,6.35,0,0,1,0,8.981Z" transform="translate(57.025 94.457) rotate(180)" fill="#21505c"/>
  <path id="Path_1176" data-name="Path 1176" d="M380.181,105.647,326.294,51.76l22.453-22.453a6.35,6.35,0,0,1,8.981,0l45.329,44.905a6.35,6.35,0,0,1,0,8.981Z" transform="translate(-188.151 -27.448)" fill="#48adc7"/>
  <path id="Path_1226" data-name="Path 1226" d="M378.426,104.042,347.22,72.608c24.933-24.933,26.063-26.075,27.473-26.018S401.3,72.608,401.3,72.608a6.35,6.35,0,0,1,0,8.981Z" transform="translate(-186.396 -25.843)" fill="#378497"/>
  <path id="Path_1178" data-name="Path 1178" d="M207.254,195.439l.09-.09a14.2,14.2,0,0,0,0-20.117L140.615,108.5c-3.768-3.768-14.361-8.371-29.637-7.544-9.308.344-12.724,1.108-19.309-5.478L36.214,149.367l7.455,7.455c.671.855,1.491,4.245,1.873,6.652,2.044,12.89,4.468,16.515,9.376,22.558l.022.022L124.9,256.017a14.289,14.289,0,0,0,20.207-20.207,14.289,14.289,0,0,0,20.207,0c5.58-5.58,7.148-14.627,1.568-20.207a14.289,14.289,0,1,0,20.207-20.207l.045.045A14.2,14.2,0,0,0,207.254,195.439Z" transform="translate(-20.882 -66.677)" fill="#21505c"/>
  <path id="Path_1236" data-name="Path 1236" d="M207.254,195.439l.09-.09a14.2,14.2,0,0,0,0-20.117L140.615,108.5c-3.768-3.768-14.361-8.371-29.637-7.544-9.308.344-12.724,1.108-19.309-5.478L36.214,149.367l7.455,7.455c.671.855,1.491,4.245,1.873,6.652,2.044,12.89,4.468,16.515,9.376,22.558l.022.022L124.9,256.017a14.289,14.289,0,0,0,20.207-20.207,14.289,14.289,0,0,0,20.207,0c5.58-5.58,7.148-14.627,1.568-20.207a14.289,14.289,0,1,0,20.207-20.207l.045.045A14.2,14.2,0,0,0,207.254,195.439Z" transform="translate(-20.882 -66.677)" fill="url(#linear-gradient)" style="mix-blend-mode: screen;isolation: isolate"/>
  <g id="Group_1914" data-name="Group 1914" transform="translate(12.27 15.435)">
    <path id="Path_1179" data-name="Path 1179" d="M33.166,255.636h0a14.289,14.289,0,0,1,0-20.207l15.717-15.717a14.289,14.289,0,0,1,20.207,0h0a14.289,14.289,0,0,1,0,20.207L53.373,255.636A14.289,14.289,0,0,1,33.166,255.636Z" transform="translate(-28.981 -151.335)" fill="#f4d7af"/>
    <path id="Path_1180" data-name="Path 1180" d="M80.9,303.365h0a14.289,14.289,0,0,1,0-20.207l15.717-15.717a14.289,14.289,0,0,1,20.207,0h0a14.289,14.289,0,0,1,0,20.207L101.1,303.365A14.288,14.288,0,0,1,80.9,303.365Z" transform="translate(-56.504 -178.857)" fill="#f4d7af"/>
    <path id="Path_1181" data-name="Path 1181" d="M128.625,351.1h0a14.289,14.289,0,0,1,0-20.207l15.717-15.717a14.289,14.289,0,0,1,20.207,0h0a14.289,14.289,0,0,1,0,20.207L148.832,351.1A14.289,14.289,0,0,1,128.625,351.1Z" transform="translate(-84.026 -206.38)" fill="#f4d7af"/>
    <path id="Path_1182" data-name="Path 1182" d="M176.355,398.825h0a14.289,14.289,0,0,1,0-20.207L192.072,362.9a14.289,14.289,0,0,1,20.207,0h0a14.289,14.289,0,0,1,0,20.207l-15.717,15.717A14.289,14.289,0,0,1,176.355,398.825Z" transform="translate(-111.548 -233.902)" fill="#f4d7af"/>
    <path id="Path_1183" data-name="Path 1183" d="M294.607,128.77c.368-2.6.346-6.67,1.118-7.442l3.64-3.64L245.583,63.906c-3,1.3-7.8,1.711-12.909,2.1C221.2,66.872,206.161,67.2,194.6,78.76L174.754,98.6a14.289,14.289,0,0,0,20.207,20.207l25.82-25.82,60.625,60.625C287.6,147.1,293.094,139.649,294.607,128.77Z" transform="translate(-110.625 -63.906)" fill="#f4d7af"/>
  </g>
</svg>
