<svg xmlns="http://www.w3.org/2000/svg" xmlns:xlink="http://www.w3.org/1999/xlink" width="182.039" height="175" viewBox="0 0 182.039 175">
  <defs>
    <linearGradient id="linear-gradient" x1="0.5" x2="0.5" y2="1" gradientUnits="objectBoundingBox">
      <stop offset="0" stop-color="#fba766"/>
      <stop offset="1"/>
    </linearGradient>
    <linearGradient id="linear-gradient-2" x1="0.5" x2="0.5" y2="1" gradientUnits="objectBoundingBox">
      <stop offset="0" stop-color="#fff"/>
      <stop offset="1"/>
    </linearGradient>
  </defs>
  <g id="thumbs-up" transform="translate(0 -60.292)">
    <path id="Path_1199" data-name="Path 1199" d="M284.171,242.87a23.861,23.861,0,0,0,3.8-13.169c0-11.372-7.387-20.625-16.466-20.625H228.713c8.588-11.669,12.567-19.906,14.812-29.608A23.521,23.521,0,0,0,241,162.2c-3-4.992-7.573-7.855-12.559-7.855-5.965,0-11.5,4.327-14.1,11.024-9.447,24.329-37.225,44.49-37.5,44.688a7.95,7.95,0,0,0-3,6.472V321.892c0,4.117,2.664,7.456,5.952,7.456h91.715c9.079,0,16.466-9.253,16.466-20.627a23.856,23.856,0,0,0-3.8-13.169,24.708,24.708,0,0,0,0-26.34,24.711,24.711,0,0,0,0-26.342Zm0,0" transform="translate(-105.934 -94.056)" fill="#f4d7af"/>
    <path id="Path_1238" data-name="Path 1238" d="M284.171,242.87a23.861,23.861,0,0,0,3.8-13.169c0-11.372-7.387-20.625-16.466-20.625H228.713c8.588-11.669,12.567-19.906,14.812-29.608A23.521,23.521,0,0,0,241,162.2c-3-4.992-7.573-7.855-12.559-7.855-5.965,0-11.5,4.327-14.1,11.024-9.447,24.329-37.225,44.49-37.5,44.688a7.95,7.95,0,0,0-3,6.472V321.892c0,4.117,2.664,7.456,5.952,7.456h91.715c9.079,0,16.466-9.253,16.466-20.627a23.856,23.856,0,0,0-3.8-13.169,24.708,24.708,0,0,0,0-26.34,24.711,24.711,0,0,0,0-26.342Zm0,0" transform="translate(-105.935 -94.056)" fill="url(#linear-gradient)" style="mix-blend-mode: screen;isolation: isolate"/>
    <path id="Path_1201" data-name="Path 1201" d="M66.931,266.2H5.394C2.415,266.2,0,269.536,0,273.655V379.013c0,4.119,2.415,7.456,5.394,7.456H66.931c2.978,0,5.394-3.337,5.394-7.456V273.655C72.325,269.536,69.911,266.2,66.931,266.2Zm0,0" transform="translate(0 -151.179)" fill="#48adc7"/>
    <path id="Path_1202" data-name="Path 1202" d="M0,389.1v55.01a5.264,5.264,0,0,0,5.394,5.124H66.931a5.264,5.264,0,0,0,5.394-5.124V389.1Zm0,0" transform="translate(0 -213.946)" fill="#378497"/>
    <path id="Path_1203" data-name="Path 1203" d="M108.254,266.2h30.04v120.27h-30.04Zm0,0" transform="translate(-65.968 -151.179)" fill="#21505c"/>
    <path id="Path_1247" data-name="Path 1247" d="M108.254,266.2h30.04v120.27h-30.04Zm0,0" transform="translate(-65.968 -151.179)" opacity="0.4" fill="url(#linear-gradient-2)" style="mix-blend-mode: multiply;isolation: isolate"/>
  </g>
</svg>
