<svg xmlns="http://www.w3.org/2000/svg" width="266.001" height="57.81" viewBox="0 0 266.001 57.81">
  <g id="Group_1154" data-name="Group 1154" transform="translate(-347 0)">
    <path id="Path_467" data-name="Path 467" d="M184.93,282.992V251.156h8.406l6.615,11.664a92.74,92.74,0,0,1,5.194,10.913h.142a118.654,118.654,0,0,1-.614-13.273v-9.3h6.614v31.836h-7.56l-6.8-12.28a119.213,119.213,0,0,1-5.527-11.244l-.141.046c.192,4.206.283,8.693.283,13.886v9.591Z" transform="translate(162.07 -249.458)" fill="#fff"/>
    <path id="Path_468" data-name="Path 468" d="M244.493,279.532c.239,2.976,3.167,4.392,6.521,4.392a20.342,20.342,0,0,0,6.376-.944l.947,4.865a22.785,22.785,0,0,1-8.363,1.418c-7.841,0-12.329-4.531-12.329-11.762,0-5.859,3.638-12.329,11.667-12.329,7.465,0,10.3,5.811,10.3,11.527a17.077,17.077,0,0,1-.235,2.833Zm8.458-4.912c0-1.748-.757-4.675-4.065-4.675-3.022,0-4.248,2.743-4.44,4.675Z" transform="translate(140.262 -255.256)" fill="#fff"/>
    <path id="Path_469" data-name="Path 469" d="M289.023,254.784V261.4h5.147v5.288h-5.147v8.364c0,2.782.66,4.058,2.831,4.058a12.034,12.034,0,0,0,2.129-.185l.049,5.429a14.132,14.132,0,0,1-4.677.614,7.47,7.47,0,0,1-5.384-1.982c-1.326-1.372-1.983-3.592-1.983-6.849v-9.449h-3.074V261.4h3.074v-5.009Z" transform="translate(123.188 -250.958)" fill="#fff"/>
    <path id="Path_470" data-name="Path 470" d="M312.445,251.156h7.229v25.79h12.657v6.046H312.445Z" transform="translate(109.314 -249.458)" fill="#fff"/>
    <path id="Path_471" data-name="Path 471" d="M360.511,252.535a3.607,3.607,0,0,1-3.873,3.592,3.617,3.617,0,1,1,.045-7.228A3.6,3.6,0,0,1,360.511,252.535Z" transform="translate(92.573 -248.525)" fill="#fff"/>
    <rect id="Rectangle_2037" data-name="Rectangle 2037" width="7.178" height="23.097" transform="translate(445.668 10.438)" fill="#fff"/>
    <path id="Path_472" data-name="Path 472" d="M375.186,273.062c0-2.882-.094-5.34-.191-7.368h6.235l.331,3.162h.142a8.466,8.466,0,0,1,7.133-3.684c4.721,0,8.265,3.119,8.265,9.922v13.7H389.92v-12.8c0-2.977-1.041-5.009-3.637-5.009a3.83,3.83,0,0,0-3.636,2.7,4.911,4.911,0,0,0-.287,1.792v13.322h-7.176Z" transform="translate(83.437 -255.256)" fill="#fff"/>
    <path id="Path_473" data-name="Path 473" d="M429.725,268.426h.1c.518-.944,1.09-1.889,1.652-2.786l4.677-6.943H444.8l-8.27,9.35,9.45,13.746h-8.836l-5.571-9.5-1.844,2.268v7.227h-7.177V248.259h7.177Z" transform="translate(63.763 -248.259)" fill="#fff"/>
    <path id="Path_474" data-name="Path 474" d="M468.822,257.2h-8.551v-6.048h24.468V257.2h-8.69v25.788h-7.227Z" transform="translate(48.154 -249.458)" fill="#fff"/>
    <path id="Path_475" data-name="Path 475" d="M503.664,273.3c0-3.4-.093-5.62-.188-7.6h6.188l.236,4.251h.188a6.79,6.79,0,0,1,6.235-4.773,7.307,7.307,0,0,1,1.511.1v6.754a10.386,10.386,0,0,0-1.936-.188c-2.646,0-4.44,1.417-4.909,3.635a8.257,8.257,0,0,0-.143,1.6v11.718h-7.181Z" transform="translate(30.278 -255.256)" fill="#fff"/>
    <path id="Path_476" data-name="Path 476" d="M555.9,281.742c0,3.025.091,5.481.189,7.418h-6.235l-.332-3.258h-.138a8.251,8.251,0,0,1-7.228,3.778c-4.675,0-8.123-2.93-8.123-10.063V266.063h7.225v12.423c0,3.351,1.09,5.381,3.589,5.381a3.869,3.869,0,0,0,3.591-2.5,4.041,4.041,0,0,0,.239-1.561V266.063H555.9Z" transform="translate(17.636 -255.625)" fill="#fff"/>
    <path id="Path_477" data-name="Path 477" d="M580.2,282.508a14.008,14.008,0,0,0,6.186,1.747c2.174,0,3.069-.757,3.069-1.934s-.705-1.749-3.4-2.648c-4.767-1.6-6.608-4.2-6.562-6.944,0-4.3,3.687-7.557,9.4-7.557a15.566,15.566,0,0,1,6.521,1.321l-1.279,4.963a11.276,11.276,0,0,0-5-1.327c-1.748,0-2.742.714-2.742,1.892,0,1.086.9,1.656,3.737,2.644,4.391,1.512,6.23,3.733,6.279,7.136,0,4.3-3.4,7.461-10.016,7.461a16.3,16.3,0,0,1-7.46-1.609Z" transform="translate(-0.936 -255.256)" fill="#fff"/>
    <path id="Path_478" data-name="Path 478" d="M622.729,254.784V261.4h5.146v5.288h-5.146v8.364c0,2.782.654,4.058,2.829,4.058a12.054,12.054,0,0,0,2.128-.185l.049,5.429a14.132,14.132,0,0,1-4.677.614,7.486,7.486,0,0,1-5.39-1.982c-1.318-1.372-1.982-3.592-1.982-6.849v-9.449h-3.069V261.4h3.069v-5.009Z" transform="translate(-14.874 -250.958)" fill="#fff"/>
    <g id="Group_1153" data-name="Group 1153" transform="translate(401.922 44.223)">
      <path id="Path_479" data-name="Path 479" d="M280.876,325.507h1.615l-.568,2.653h1.517l-.275,1.3h-1.517l-1.323,6.2q-.106.5.2.666a1.309,1.309,0,0,0,.6.1c.077,0,.16,0,.249,0s.2-.01.32-.022l-.266,1.26a4.07,4.07,0,0,1-.6.115,5.7,5.7,0,0,1-.652.036q-1.119,0-1.4-.573a2.284,2.284,0,0,1-.084-1.486l1.34-6.292h-1.287l.275-1.3h1.287Z" transform="translate(-278.612 -324.442)" fill="#fff"/>
      <path id="Path_480" data-name="Path 480" d="M288.914,323.933h1.6l-1.038,4.863a6.444,6.444,0,0,1,1.242-1.012,4,4,0,0,1,2.033-.506q2.068,0,2.493,1.446a4.725,4.725,0,0,1-.062,2.193l-1.3,6.1h-1.642l1.269-5.99a3.224,3.224,0,0,0,.062-1.535q-.275-.78-1.473-.781a3.293,3.293,0,0,0-1.944.684,4.126,4.126,0,0,0-1.358,2.582l-1.065,5.041h-1.6Z" transform="translate(-281.725 -323.791)" fill="#fff"/>
      <path id="Path_481" data-name="Path 481" d="M312.624,331.374a3.59,3.59,0,0,1,.284,1.677,10.544,10.544,0,0,1-.3,2.094H305.64a3.588,3.588,0,0,0,.191,2.32,1.835,1.835,0,0,0,1.8.874,3.127,3.127,0,0,0,2.165-.825,3.649,3.649,0,0,0,.843-1.11h1.571a4.333,4.333,0,0,1-.661,1.167,5.509,5.509,0,0,1-1.007,1.052,4.778,4.778,0,0,1-2.006.959,5.951,5.951,0,0,1-1.34.142,3.2,3.2,0,0,1-2.733-1.291,4.366,4.366,0,0,1-.461-3.616,6.871,6.871,0,0,1,2.032-3.719,5.073,5.073,0,0,1,3.55-1.428,3.762,3.762,0,0,1,1.864.474A2.608,2.608,0,0,1,312.624,331.374Zm-1.393,2.5a3.733,3.733,0,0,0-.1-1.659,1.816,1.816,0,0,0-1.944-1.154,3.006,3.006,0,0,0-2.014.794,3.866,3.866,0,0,0-1.225,2.019Z" transform="translate(-289.045 -326.164)" fill="#fff"/>
      <path id="Path_482" data-name="Path 482" d="M335.993,324.507a2.968,2.968,0,0,1,2.325-.817c.1,0,.2,0,.311.009s.225.015.355.027l-.311,1.455c-.159-.012-.276-.019-.351-.022s-.143,0-.208,0q-.728,0-.95.377a8.42,8.42,0,0,0-.55,1.921h1.579l-.266,1.26h-1.6l-1.739,8.2h-1.58l1.739-8.2h-1.322l.266-1.26h1.322l.32-1.491A3.481,3.481,0,0,1,335.993,324.507Z" transform="translate(-301.118 -323.69)" fill="#fff"/>
      <path id="Path_483" data-name="Path 483" d="M342.949,327.584h1.624l-2.006,9.46h-1.624Zm.763-3.576h1.624l-.391,1.81h-1.624Z" transform="translate(-304.4 -323.822)" fill="#fff"/>
      <path id="Path_484" data-name="Path 484" d="M350.4,323.933h1.553l-1,4.729a4.771,4.771,0,0,1,1.469-1.042,4.008,4.008,0,0,1,1.655-.359,2.974,2.974,0,0,1,2.622,1.22,4.587,4.587,0,0,1,.341,3.6,7.619,7.619,0,0,1-1.89,3.745,4.455,4.455,0,0,1-3.345,1.491,2.6,2.6,0,0,1-1.713-.524,3.119,3.119,0,0,1-.736-.994l-.257,1.216h-1.473Zm4.987,8.227a4.044,4.044,0,0,0-.115-2.485,1.664,1.664,0,0,0-1.686-.985,3.263,3.263,0,0,0-2.085.808,4.494,4.494,0,0,0-1.384,2.662,5.675,5.675,0,0,0-.124,2.174A1.8,1.8,0,0,0,352,335.9a2.7,2.7,0,0,0,2.156-1.03A6.206,6.206,0,0,0,355.383,332.16Z" transform="translate(-307.162 -323.791)" fill="#fff"/>
      <path id="Path_485" data-name="Path 485" d="M367.161,329.883h1.517l-.346,1.642a4.845,4.845,0,0,1,1.158-1.167,2.912,2.912,0,0,1,1.824-.688c.029,0,.08,0,.151.009s.189.018.355.035l-.355,1.686a2.315,2.315,0,0,0-.257-.035c-.077-.006-.163-.009-.257-.009a2.808,2.808,0,0,0-2.019.777,3.471,3.471,0,0,0-1.034,1.788l-1.154,5.466h-1.6Z" transform="translate(-314.413 -326.164)" fill="#fff"/>
      <path id="Path_486" data-name="Path 486" d="M384.642,331.374a3.6,3.6,0,0,1,.284,1.677,10.563,10.563,0,0,1-.3,2.094h-6.966a3.588,3.588,0,0,0,.19,2.32,1.835,1.835,0,0,0,1.8.874,3.127,3.127,0,0,0,2.165-.825,3.667,3.667,0,0,0,.843-1.11h1.571a4.3,4.3,0,0,1-.661,1.167,5.5,5.5,0,0,1-1.007,1.052,4.781,4.781,0,0,1-2.006.959,5.959,5.959,0,0,1-1.34.142,3.2,3.2,0,0,1-2.733-1.291,4.363,4.363,0,0,1-.461-3.616,6.863,6.863,0,0,1,2.032-3.719,5.073,5.073,0,0,1,3.55-1.428,3.76,3.76,0,0,1,1.863.474A2.613,2.613,0,0,1,384.642,331.374Zm-1.394,2.5a3.732,3.732,0,0,0-.1-1.659,1.817,1.817,0,0,0-1.944-1.154,3.005,3.005,0,0,0-2.014.794,3.862,3.862,0,0,0-1.225,2.019Z" transform="translate(-318.84 -326.164)" fill="#fff"/>
      <path id="Path_487" data-name="Path 487" d="M413.706,334.391a7.652,7.652,0,0,1-1.925,3.8,5.01,5.01,0,0,1-3.79,1.5,3.131,3.131,0,0,1-2.831-1.327,4.614,4.614,0,0,1-.4-3.563,7.108,7.108,0,0,1,2.033-3.816,5.052,5.052,0,0,1,3.567-1.42,3.476,3.476,0,0,1,2.844,1.225A4.142,4.142,0,0,1,413.706,334.391Zm-1.677.044a4.483,4.483,0,0,0,.036-2.165,1.881,1.881,0,0,0-2.05-1.314,2.889,2.889,0,0,0-2.364,1.119,6.321,6.321,0,0,0-1.238,2.7,4.119,4.119,0,0,0,.128,2.529,1.851,1.851,0,0,0,1.895,1.011,2.8,2.8,0,0,0,2.436-1.2A7.153,7.153,0,0,0,412.029,334.435Z" transform="translate(-330.735 -326.12)" fill="#fff"/>
      <path id="Path_488" data-name="Path 488" d="M425.251,324.507a2.966,2.966,0,0,1,2.325-.817q.151,0,.311.009c.106.006.225.015.355.027l-.311,1.455c-.159-.012-.277-.019-.351-.022s-.143,0-.208,0c-.485,0-.8.125-.949.377a8.394,8.394,0,0,0-.551,1.921h1.58l-.267,1.26h-1.6l-1.739,8.2H422.27l1.739-8.2h-1.323l.267-1.26h1.322l.319-1.491A3.488,3.488,0,0,1,425.251,324.507Z" transform="translate(-338.047 -323.69)" fill="#fff"/>
      <path id="Path_489" data-name="Path 489" d="M448.229,333.615a1.145,1.145,0,0,0,.843-.461,1.612,1.612,0,0,0,.231-.612,1.059,1.059,0,0,0-.329-1.185,2.719,2.719,0,0,0-1.588-.369,2.574,2.574,0,0,0-1.917.675,2.761,2.761,0,0,0-.613,1.109h-1.491a3.544,3.544,0,0,1,1.66-2.444,5.456,5.456,0,0,1,2.689-.688,4.438,4.438,0,0,1,2.582.639,1.771,1.771,0,0,1,.621,1.987l-1.163,5.476a.658.658,0,0,0,.014.4q.066.15.4.15c.071,0,.151,0,.244-.013s.19-.022.3-.04l-.257,1.18a4.926,4.926,0,0,1-.59.133,4.3,4.3,0,0,1-.537.026,1.038,1.038,0,0,1-1.073-.585,1.917,1.917,0,0,1-.089-.879,5.578,5.578,0,0,1-1.642,1.109,4.954,4.954,0,0,1-2.112.471,2.446,2.446,0,0,1-1.992-.8,2.245,2.245,0,0,1-.412-2.01,3.313,3.313,0,0,1,1.264-2.05,4.876,4.876,0,0,1,2.357-.9Zm-3.168,4.721a4.219,4.219,0,0,0,1.722-.391,2.9,2.9,0,0,0,1.784-2.121l.266-1.287a3.281,3.281,0,0,1-.816.311,7.144,7.144,0,0,1-.94.178l-.994.124a4.354,4.354,0,0,0-1.385.364,1.852,1.852,0,0,0-1.021,1.331,1.085,1.085,0,0,0,.271,1.092A1.552,1.552,0,0,0,445.06,338.336Z" transform="translate(-346.18 -326.151)" fill="#fff"/>
      <path id="Path_490" data-name="Path 490" d="M469.333,336.38a2.026,2.026,0,0,0,.142,1.225q.434.772,1.925.772a3.571,3.571,0,0,0,1.647-.386,1.667,1.667,0,0,0,.928-1.194.816.816,0,0,0-.347-.932,5.229,5.229,0,0,0-1.269-.453l-1.2-.319a4.979,4.979,0,0,1-1.65-.674,1.612,1.612,0,0,1-.648-1.792,3.513,3.513,0,0,1,1.433-2.184,4.623,4.623,0,0,1,2.791-.834q2.148,0,2.831,1.26a2.4,2.4,0,0,1,.213,1.722h-1.509a1.551,1.551,0,0,0-.177-.985,2.011,2.011,0,0,0-1.775-.631,2.638,2.638,0,0,0-1.442.346,1.427,1.427,0,0,0-.661.915.9.9,0,0,0,.4.994,3.011,3.011,0,0,0,.967.39l1,.257a6.664,6.664,0,0,1,2.139.808,1.758,1.758,0,0,1,.514,1.925,3.762,3.762,0,0,1-1.424,2.192,4.884,4.884,0,0,1-3.128.923q-2.121,0-2.8-.963a3.086,3.086,0,0,1-.439-2.383Z" transform="translate(-356.857 -326.139)" fill="#fff"/>
      <path id="Path_491" data-name="Path 491" d="M484.506,329.883h1.58l-.284,1.349a7.4,7.4,0,0,1,1.242-1.021,3.661,3.661,0,0,1,1.908-.541,2.37,2.37,0,0,1,1.713.559,2.207,2.207,0,0,1,.505.941,4.761,4.761,0,0,1,1.5-1.132,3.966,3.966,0,0,1,1.69-.368q1.917,0,2.316,1.384a4.306,4.306,0,0,1-.053,2.005l-1.34,6.328h-1.66l1.4-6.6q.2-.95-.2-1.3a1.574,1.574,0,0,0-1.083-.355,2.8,2.8,0,0,0-1.752.63,3.454,3.454,0,0,0-1.123,2.1l-1.171,5.529h-1.624l1.313-6.2a3.127,3.127,0,0,0,.071-1.411q-.222-.666-1.216-.666a2.9,2.9,0,0,0-1.8.7,4.258,4.258,0,0,0-1.283,2.538l-1.065,5.041h-1.6Z" transform="translate(-362.963 -326.164)" fill="#fff"/>
      <path id="Path_492" data-name="Path 492" d="M513.08,333.615a1.146,1.146,0,0,0,.844-.461,1.6,1.6,0,0,0,.23-.612,1.058,1.058,0,0,0-.328-1.185,2.72,2.72,0,0,0-1.588-.369,2.575,2.575,0,0,0-1.917.675,2.775,2.775,0,0,0-.613,1.109h-1.491a3.546,3.546,0,0,1,1.66-2.444,5.46,5.46,0,0,1,2.689-.688,4.44,4.44,0,0,1,2.583.639,1.769,1.769,0,0,1,.621,1.987l-1.163,5.476a.655.655,0,0,0,.013.4c.045.1.176.15.4.15.071,0,.152,0,.244-.013s.191-.022.3-.04l-.257,1.18a4.974,4.974,0,0,1-.59.133,4.312,4.312,0,0,1-.537.026,1.037,1.037,0,0,1-1.073-.585,1.91,1.91,0,0,1-.09-.879,5.572,5.572,0,0,1-1.642,1.109,4.951,4.951,0,0,1-2.112.471,2.448,2.448,0,0,1-1.993-.8,2.247,2.247,0,0,1-.412-2.01,3.313,3.313,0,0,1,1.265-2.05,4.876,4.876,0,0,1,2.356-.9Zm-3.168,4.721a4.22,4.22,0,0,0,1.722-.391,2.906,2.906,0,0,0,1.784-2.121l.266-1.287a3.277,3.277,0,0,1-.817.311,7.15,7.15,0,0,1-.94.178l-.994.124a4.353,4.353,0,0,0-1.384.364,1.849,1.849,0,0,0-1.021,1.331,1.084,1.084,0,0,0,.271,1.092A1.551,1.551,0,0,0,509.912,338.336Z" transform="translate(-373.011 -326.151)" fill="#fff"/>
      <path id="Path_493" data-name="Path 493" d="M525.879,329.883H527.4l-.346,1.642a4.856,4.856,0,0,1,1.158-1.167,2.913,2.913,0,0,1,1.824-.688c.03,0,.08,0,.151.009s.189.018.355.035l-.355,1.686a2.345,2.345,0,0,0-.258-.035c-.077-.006-.162-.009-.257-.009a2.809,2.809,0,0,0-2.019.777,3.474,3.474,0,0,0-1.034,1.788l-1.153,5.466h-1.6Z" transform="translate(-380.08 -326.164)" fill="#fff"/>
      <path id="Path_494" data-name="Path 494" d="M537.247,325.507h1.616l-.568,2.653h1.517l-.275,1.3h-1.518l-1.322,6.2q-.106.5.195.666a1.312,1.312,0,0,0,.6.1c.077,0,.16,0,.248,0s.2-.01.32-.022l-.266,1.26a4.1,4.1,0,0,1-.6.115,5.714,5.714,0,0,1-.653.036q-1.118,0-1.4-.573a2.276,2.276,0,0,1-.085-1.486l1.34-6.292h-1.287l.275-1.3h1.286Z" transform="translate(-384.68 -324.442)" fill="#fff"/>
      <path id="Path_495" data-name="Path 495" d="M556.235,329.883h1.518l-.284,1.349a5.775,5.775,0,0,1,1.681-1.2,4.314,4.314,0,0,1,1.753-.363q2.023,0,2.431,1.411a4.743,4.743,0,0,1-.071,2.21l-1.3,6.1h-1.625l1.269-5.99a3.105,3.105,0,0,0,.044-1.4,1.223,1.223,0,0,0-1.357-.888,3.442,3.442,0,0,0-.958.116,3.475,3.475,0,0,0-2.046,1.753,7.274,7.274,0,0,0-.422,1.433l-1.056,4.979h-1.6Z" transform="translate(-392.639 -326.164)" fill="#fff"/>
      <path id="Path_496" data-name="Path 496" d="M577.777,333.615a1.145,1.145,0,0,0,.843-.461,1.613,1.613,0,0,0,.231-.612,1.06,1.06,0,0,0-.329-1.185,2.719,2.719,0,0,0-1.588-.369,2.573,2.573,0,0,0-1.916.675,2.759,2.759,0,0,0-.613,1.109h-1.491a3.544,3.544,0,0,1,1.66-2.444,5.457,5.457,0,0,1,2.689-.688,4.438,4.438,0,0,1,2.582.639,1.77,1.77,0,0,1,.621,1.987l-1.163,5.476a.654.654,0,0,0,.014.4q.066.15.395.15c.072,0,.152,0,.244-.013s.191-.022.3-.04l-.257,1.18a4.948,4.948,0,0,1-.59.133,4.3,4.3,0,0,1-.537.026,1.037,1.037,0,0,1-1.073-.585,1.917,1.917,0,0,1-.089-.879,5.578,5.578,0,0,1-1.642,1.109,4.956,4.956,0,0,1-2.112.471,2.446,2.446,0,0,1-1.992-.8,2.246,2.246,0,0,1-.412-2.01,3.312,3.312,0,0,1,1.264-2.05,4.876,4.876,0,0,1,2.356-.9Zm-3.168,4.721a4.218,4.218,0,0,0,1.722-.391,2.9,2.9,0,0,0,1.784-2.121l.266-1.287a3.276,3.276,0,0,1-.817.311,7.113,7.113,0,0,1-.94.178l-.994.124a4.354,4.354,0,0,0-1.385.364,1.852,1.852,0,0,0-1.021,1.331,1.084,1.084,0,0,0,.271,1.092A1.551,1.551,0,0,0,574.608,338.336Z" transform="translate(-399.778 -326.151)" fill="#fff"/>
      <path id="Path_497" data-name="Path 497" d="M591.279,325.507h1.616l-.568,2.653h1.517l-.275,1.3h-1.518l-1.322,6.2q-.106.5.2.666a1.308,1.308,0,0,0,.6.1c.077,0,.16,0,.249,0s.2-.01.32-.022l-.266,1.26a4.079,4.079,0,0,1-.6.115,5.71,5.71,0,0,1-.652.036q-1.119,0-1.4-.573a2.283,2.283,0,0,1-.084-1.486l1.339-6.292h-1.287l.276-1.3h1.286Z" transform="translate(-407.035 -324.442)" fill="#fff"/>
      <path id="Path_498" data-name="Path 498" d="M598.546,327.584h1.624l-2.006,9.46H596.54Zm.763-3.576h1.623l-.39,1.81h-1.623Z" transform="translate(-410.147 -323.822)" fill="#fff"/>
      <path id="Path_499" data-name="Path 499" d="M612.785,334.391a7.65,7.65,0,0,1-1.925,3.8,5.009,5.009,0,0,1-3.79,1.5,3.131,3.131,0,0,1-2.83-1.327,4.617,4.617,0,0,1-.4-3.563,7.113,7.113,0,0,1,2.033-3.816,5.053,5.053,0,0,1,3.567-1.42,3.476,3.476,0,0,1,2.844,1.225A4.14,4.14,0,0,1,612.785,334.391Zm-1.677.044a4.481,4.481,0,0,0,.035-2.165,1.881,1.881,0,0,0-2.05-1.314,2.889,2.889,0,0,0-2.365,1.119,6.323,6.323,0,0,0-1.238,2.7,4.113,4.113,0,0,0,.128,2.529,1.852,1.852,0,0,0,1.9,1.011,2.8,2.8,0,0,0,2.435-1.2A7.162,7.162,0,0,0,611.108,334.435Z" transform="translate(-413.099 -326.12)" fill="#fff"/>
      <path id="Path_500" data-name="Path 500" d="M622.371,329.883h1.518l-.284,1.349a5.777,5.777,0,0,1,1.682-1.2,4.314,4.314,0,0,1,1.753-.363q2.024,0,2.431,1.411a4.727,4.727,0,0,1-.071,2.21l-1.3,6.1h-1.624l1.269-5.99a3.1,3.1,0,0,0,.044-1.4,1.223,1.223,0,0,0-1.357-.888,3.443,3.443,0,0,0-.959.116,3.167,3.167,0,0,0-1.323.781,3.13,3.13,0,0,0-.723.972,7.216,7.216,0,0,0-.422,1.433l-1.056,4.979h-1.6Z" transform="translate(-420.001 -326.164)" fill="#fff"/>
    </g>
  </g>
</svg>
