<svg xmlns="http://www.w3.org/2000/svg" xmlns:xlink="http://www.w3.org/1999/xlink" width="196.962" height="200" viewBox="0 0 196.962 200">
  <defs>
    <linearGradient id="linear-gradient" x1="0.5" x2="0.5" y2="1" gradientUnits="objectBoundingBox">
      <stop offset="0" stop-color="#fba766"/>
      <stop offset="1"/>
    </linearGradient>
  </defs>
  <g id="Group_2020" data-name="Group 2020" transform="translate(-1174 -4104)">
    <path id="Path_1221" data-name="Path 1221" d="M103.961,280.431l41.855-41.855h57.717l31.989-31.989a15.411,15.411,0,0,1,21.8,0h0a15.411,15.411,0,0,1,0,21.8l-51.047,51.047H144l-20.477,20.563Z" transform="translate(1109.13 3980.862)" fill="#fba766"/>
    <path id="Path_1223" data-name="Path 1223" d="M92.826,308.718l45.951-45.951h33.346a14.7,14.7,0,0,0,14.7-14.7s2.248-14.7-4.336-14.7H123.642L70.555,286.447Z" transform="translate(1129.486 3961.797)" fill="#fba766"/>
    <path id="Union_1" data-name="Union 1" d="M15384.16-845.42h0l-22.269-22.273,53.087-53.087h58.85c6.581,0,4.335,14.706,4.335,14.706a14.637,14.637,0,0,1-3.072,8.995l31.407-31.408a15.412,15.412,0,0,1,21.8,0,15.412,15.412,0,0,1,0,21.8l-51.048,51.044h-62.272L15394.5-835.08Z" transform="translate(-14161.85 5115.935)" fill="url(#linear-gradient)" style="mix-blend-mode: screen;isolation: isolate"/>
    <path id="Path_1219" data-name="Path 1219" d="M304.169,6.623a22.718,22.718,0,0,0-32.128.063l-3.366,3.38-3.366-3.38a22.718,22.718,0,1,0-32.19,32.065l35.557,35.7,35.557-35.7A22.718,22.718,0,0,0,304.169,6.623Z" transform="translate(1034.461 4104)" fill="#48adc7"/>
    <path id="Path_1220" data-name="Path 1220" d="M369.968,6.624a22.718,22.718,0,0,0-32.128.063l-3.366,3.38V74.447l35.557-35.7A22.718,22.718,0,0,0,369.968,6.624Z" transform="translate(968.661 4104)" fill="#21505c"/>
    <rect id="Rectangle_3975" data-name="Rectangle 3975" width="38.941" height="76.738" transform="translate(1174 4249.738) rotate(-45)" fill="#378497"/>
    <path id="Path_1248" data-name="Path 1248" d="M304.169,6.623a22.718,22.718,0,0,0-32.128.063l-3.366,3.38-3.366-3.38a22.718,22.718,0,1,0-32.19,32.065l35.557,35.7,35.557-35.7A22.718,22.718,0,0,0,304.169,6.623Z" transform="translate(1034.461 4104)" fill="url(#linear-gradient)" style="mix-blend-mode: screen;isolation: isolate"/>
  </g>
</svg>
