<svg xmlns="http://www.w3.org/2000/svg" width="120" height="120" viewBox="0 0 120 120">
  <path id="playcircle" d="M60,120A59.814,59.814,0,0,1,8.027,90.117,58.906,58.906,0,0,1,0,60,59.814,59.814,0,0,1,29.883,8.027,58.961,58.961,0,0,1,60,0a59.814,59.814,0,0,1,51.973,29.883A58.994,58.994,0,0,1,120,60a59.814,59.814,0,0,1-29.883,51.973A58.938,58.938,0,0,1,60,120ZM60,15A43.356,43.356,0,0,0,28.183,28.183,43.356,43.356,0,0,0,15,60,43.356,43.356,0,0,0,28.183,91.817,43.356,43.356,0,0,0,60,105,43.356,43.356,0,0,0,91.817,91.817,43.356,43.356,0,0,0,105,60,43.356,43.356,0,0,0,91.817,28.183,43.356,43.356,0,0,0,60,15ZM45,33.75,90,60,45,86.25Z" fill="#fff"/>
</svg>
