<svg xmlns="http://www.w3.org/2000/svg" xmlns:xlink="http://www.w3.org/1999/xlink" width="229.922" height="200" viewBox="0 0 229.922 200">
  <defs>
    <linearGradient id="linear-gradient" x1="0.5" x2="0.5" y2="1" gradientUnits="objectBoundingBox">
      <stop offset="0" stop-color="#fba766"/>
      <stop offset="1"/>
    </linearGradient>
    <linearGradient id="linear-gradient-5" x1="0.5" x2="0.5" y2="1" gradientUnits="objectBoundingBox">
      <stop offset="0" stop-color="#fff"/>
      <stop offset="1"/>
    </linearGradient>
  </defs>
  <g id="team" transform="translate(0 -33.316)">
    <path id="Path_1207" data-name="Path 1207" d="M403.079,242.622a28.727,28.727,0,0,0-21.434-9.614H356.19a28.7,28.7,0,0,0-28.51,32.013l5.7,49.047a7.832,7.832,0,0,0,7.78,6.929h55.523a7.832,7.832,0,0,0,7.78-6.929l5.7-49.047A28.729,28.729,0,0,0,403.079,242.622Z" transform="translate(-180.424 -110.017)" fill="#21505c"/>
    <path id="Path_1208" data-name="Path 1208" d="M368.917,233.009H356.189a28.7,28.7,0,0,0-28.51,32.013l5.7,49.047a7.832,7.832,0,0,0,7.78,6.929h27.761V233.009Z" transform="translate(-180.424 -110.018)" fill="#378497"/>
    <path id="Path_1209" data-name="Path 1209" d="M390.6,118.875a23.752,23.752,0,1,0,23.753,23.752A23.78,23.78,0,0,0,390.6,118.875Z" transform="translate(-202.111 -47.137)" fill="#21505c"/>
    <path id="Path_1210" data-name="Path 1210" d="M390.6,118.875a23.752,23.752,0,0,0,0,47.5Z" transform="translate(-202.111 -47.137)" fill="#378497"/>
    <path id="Path_1211" data-name="Path 1211" d="M7.268,242.622A28.727,28.727,0,0,1,28.7,233.008H54.158a28.7,28.7,0,0,1,28.51,32.013l-5.7,49.047A7.832,7.832,0,0,1,69.191,321H13.668a7.832,7.832,0,0,1-7.78-6.929l-5.7-49.047A28.728,28.728,0,0,1,7.268,242.622Z" transform="translate(0 -110.017)" fill="#378497"/>
    <path id="Path_1212" data-name="Path 1212" d="M0,233.009H12.728a28.7,28.7,0,0,1,28.51,32.013l-5.7,49.047A7.832,7.832,0,0,1,27.762,321H0Z" transform="translate(41.429 -110.018)" fill="#21505c"/>
    <path id="Path_1215" data-name="Path 1215" d="M63.116,118.875a23.752,23.752,0,1,1-23.753,23.752A23.78,23.78,0,0,1,63.116,118.875Z" transform="translate(-21.686 -47.137)" fill="#378497"/>
    <path id="Path_1216" data-name="Path 1216" d="M39.363,118.875a23.752,23.752,0,1,1,0,47.5Z" transform="translate(2.067 -47.137)" fill="#21505c"/>
    <path id="Path_1240" data-name="Path 1240" d="M403.079,242.622a28.727,28.727,0,0,0-21.434-9.614H356.19a28.7,28.7,0,0,0-28.51,32.013l5.7,49.047a7.832,7.832,0,0,0,7.78,6.929h55.523a7.832,7.832,0,0,0,7.78-6.929l5.7-49.047A28.729,28.729,0,0,0,403.079,242.622Z" transform="translate(-180.424 -110.017)" fill="url(#linear-gradient)" style="mix-blend-mode: screen;isolation: isolate"/>
    <path id="Path_1241" data-name="Path 1241" d="M390.6,118.875a23.752,23.752,0,1,0,23.753,23.752A23.78,23.78,0,0,0,390.6,118.875Z" transform="translate(-202.11 -47.137)" fill="url(#linear-gradient)" style="mix-blend-mode: screen;isolation: isolate"/>
    <path id="Path_1242" data-name="Path 1242" d="M7.268,242.622A28.727,28.727,0,0,1,28.7,233.008H54.158a28.7,28.7,0,0,1,28.51,32.013l-5.7,49.047A7.832,7.832,0,0,1,69.191,321H13.668a7.832,7.832,0,0,1-7.78-6.929l-5.7-49.047A28.728,28.728,0,0,1,7.268,242.622Z" transform="translate(0 -110.017)" fill="url(#linear-gradient)" style="mix-blend-mode: screen;isolation: isolate"/>
    <path id="Path_1243" data-name="Path 1243" d="M63.116,118.875a23.752,23.752,0,1,1-23.753,23.752A23.78,23.78,0,0,1,63.116,118.875Z" transform="translate(-21.686 -47.137)" fill="url(#linear-gradient)" style="mix-blend-mode: screen;isolation: isolate"/>
    <path id="Path_1213" data-name="Path 1213" d="M232.988,216.615a39,39,0,0,0-29.1-13.05H165.92a38.962,38.962,0,0,0-38.7,43.458l8.5,73.16a7.832,7.832,0,0,0,7.78,6.929h82.822a7.831,7.831,0,0,0,7.779-6.929l8.5-73.16A38.994,38.994,0,0,0,232.988,216.615Z" transform="translate(-69.945 -93.796)" fill="#21505c"/>
    <path id="Path_1214" data-name="Path 1214" d="M184.907,203.565H165.921a38.962,38.962,0,0,0-38.7,43.458l8.5,73.16a7.832,7.832,0,0,0,7.78,6.929h41.411Z" transform="translate(-69.946 -93.796)" fill="#378497"/>
    <path id="Path_1217" data-name="Path 1217" d="M217.256,33.316a31.58,31.58,0,1,0,31.58,31.58A31.616,31.616,0,0,0,217.256,33.316Z" transform="translate(-102.295)" fill="#21505c"/>
    <path id="Path_1218" data-name="Path 1218" d="M217.256,33.316a31.58,31.58,0,1,0,0,63.16V33.316Z" transform="translate(-102.295)" fill="#378497"/>
    <path id="Path_1244" data-name="Path 1244" d="M232.988,216.615a39,39,0,0,0-29.1-13.05H165.92a38.962,38.962,0,0,0-38.7,43.458l8.5,73.16a7.832,7.832,0,0,0,7.78,6.929h82.822a7.831,7.831,0,0,0,7.779-6.929l8.5-73.16A38.994,38.994,0,0,0,232.988,216.615Z" transform="translate(-69.945 -93.796)" opacity="0" fill="url(#linear-gradient-5)" style="mix-blend-mode: multiply;isolation: isolate"/>
    <path id="Path_1245" data-name="Path 1245" d="M184.907,203.565H165.921a38.962,38.962,0,0,0-38.7,43.458l8.5,73.16a7.832,7.832,0,0,0,7.78,6.929h41.411Z" transform="translate(-69.945 -93.796)" opacity="0" fill="url(#linear-gradient-5)" style="mix-blend-mode: multiply;isolation: isolate"/>
    <path id="Path_1246" data-name="Path 1246" d="M217.256,33.316a31.58,31.58,0,1,0,31.58,31.58A31.616,31.616,0,0,0,217.256,33.316Z" transform="translate(-102.295)" opacity="0" fill="url(#linear-gradient-5)" style="mix-blend-mode: multiply;isolation: isolate"/>
  </g>
</svg>
